<?xml version="1.0" encoding="utf-8"?>
<!-- Generator: Adobe Illustrator 21.1.0, SVG Export Plug-In . SVG Version: 6.00 Build 0)  -->
<svg version="1.1" id="Capa_1" xmlns="http://www.w3.org/2000/svg" xmlns:xlink="http://www.w3.org/1999/xlink" x="0px" y="0px"
	 viewBox="0 0 512 512" style="enable-background:new 0 0 512 512;" xml:space="preserve">
<style type="text/css">
	.st0{fill:#FFFFFF;}
</style>
<g>
	<path class="st0" d="M171.8,427v64.2c0,11.5,9.3,20.8,20.8,20.8h224.9c11.5,0,20.8-9.3,20.8-20.8V427c0-11.5-9.3-20.8-20.8-20.8
		H192.6C181.1,406.1,171.8,415.5,171.8,427z"/>
	<g>
		<path class="st0" d="M213.6,140.5C213.6,140.5,213.6,140.5,213.6,140.5C213.5,140.5,213.5,140.5,213.6,140.5z"/>
		<path class="st0" d="M213.6,140.5C213.6,140.5,213.6,140.6,213.6,140.5C213.8,140.6,213.7,140.5,213.6,140.5z"/>
		<path class="st0" d="M256.9,0.7c-16.3,3.2-29.5,20.2-29.5,36.8v10.2c-7.5-12.2-21.9-19.7-37.8-17c-16.9,2.8-30.6,19.9-30.6,37.1
			v27.3c14.4-1.2,27.4,3.6,37.3,12.4c7.6,6.8,13.4,15.5,16,25.1c0.8-0.1,0.6-0.1,1.4-0.2v-22.2c0-3.5,1.5-6.9,4.2-9.1
			c7.5-5.8,17.6-0.2,17.6,8.6v59c0,2,0.5,4,1.6,5.6c5.3,8.3,14.4,13.4,24.5,13.4c10,0,19-5,24.3-13.2l0.1-0.1
			c1.1-1.7,1.7-3.8,1.7-5.8V96.2c0-8.5,9.7-14.2,17.4-8.8c2.9,2.1,4.5,5.6,4.5,9.2v72c0,2.1,0.6,4.1,1.7,5.9l0,0.1
			c5.3,8.1,14.4,13.2,24.3,13.2c10.1,0,19.2-5.1,24.5-13.4c1.1-1.7,1.6-3.6,1.6-5.6v-50.1c0-7.1,7.3-13.3,15.3-10.1
			c4.1,1.6,6.6,5.8,6.6,10.1v49.8c0,2,0.5,4.1,1.6,5.8c5.3,8.3,14.4,13.4,24.5,13.4c13.8,0,25.8-9.9,28.5-23.4V96.9
			c0-17.2-13.7-34.3-30.7-37.1c-15.9-2.7-30.3,4.9-37.8,17.1V65.4c0-17.2-13.7-34.3-30.7-37.1c-15.9-2.7-30.3,4.9-37.8,17.1V37
			C301.4,14.1,280.6-3.9,256.9,0.7z"/>
	</g>
	<path class="st0" d="M224.5,193.7c-11.1-13.1-12.7-29.4-12.7-29.4l-45.3,51.3c-3.5,3.9-9.6,4.4-13.7,0.8c-4-3.6-4.4-9.7-0.8-13.7
		l33.7-37.8c5.4-6,8.1-13.8,7.6-21.9c-0.5-8.1-4-15.5-10.1-20.9c-12.5-11.2-31.6-10-42.8,2.4l-59.2,66.3
		c-10.8,12.1-10.2,30.5,1.4,41.8l0.3,0.3c69.3,73.7,77.9,83.2,95.9,100.7c23,20.8,43.2,35.3,72.7,35.3h88.8c54,0,98-44,98-98
		c0-21.6,0-44.9,0-70c-8.3,5.6-18.2,8.8-28.5,8.8c-14.3,0-27.6-5.9-37.1-15.9c-9.4,10-22.7,15.9-37.1,15.9
		c-14.3,0-27.6-5.9-37.1-15.9c-9.4,10-22.7,15.9-37.1,15.9C247.2,209.6,233.5,204.1,224.5,193.7z"/>
</g>
</svg>
