<?xml version="1.0" encoding="utf-8"?>
<!-- Generator: Adobe Illustrator 21.1.0, SVG Export Plug-In . SVG Version: 6.00 Build 0)  -->
<svg version="1.1" id="Capa_1" xmlns="http://www.w3.org/2000/svg" xmlns:xlink="http://www.w3.org/1999/xlink" x="0px" y="0px"
	 viewBox="0 0 512 512" style="enable-background:new 0 0 512 512;" xml:space="preserve">
<style type="text/css">
	.st0{fill:#FFFFFF;}
</style>
<g>
	<path class="st0" d="M384.3,427.9H205.6c-9.1,0-16.6,7.4-16.6,16.6v51c0,9.1,7.4,16.6,16.6,16.6h178.7c9.1,0,16.6-7.4,16.6-16.6
		v-51C400.9,435.3,393.5,427.9,384.3,427.9z"/>
	<path class="st0" d="M252.5,398.3H323c42.9,0,77.9-34.9,77.9-77.9c0-11.3,0-44.3,0-55.6c-6.4,4.4-14.3,7-22.7,7
		c-11.4,0-21.9-4.7-29.4-12.7c-7.5,7.9-18,12.7-29.4,12.7c-24.6,0-38.1-19-38.1-27.8c0-1.4-0.1-10.3-0.1-62.3c0-4.9,4.1-8.7,8.7-8.7
		c4.8,0,8.7,3.9,8.7,8.7v57.5c0,1.7,0.5,3.4,1.4,4.8c0,0,0,0,0,0c4.2,6.5,11.4,10.4,19.3,10.4s15.1-4,19.3-10.4
		c0.9-1.4,1.4-3,1.4-4.7v-39.7c0-4.6,3.8-8.7,8.7-8.7c4.8,0,8.7,3.9,8.7,8.7v39.6c0,1.7,0.5,3.4,1.4,4.9c0,0,0,0,0,0
		c4.2,6.5,11.4,10.4,19.3,10.4c11,0,20.5-7.9,22.7-18.6v-54.2c0-16.2-13.2-29.4-29.4-29.4c-10.6,0-19.8,5.6-25,14v-9.6
		c0-16.2-13.2-29.4-29.4-29.4c-10.6,0-19.8,5.6-25,14V29.4c0-16.2-13.2-29.4-29.4-29.4c-16.2,0-29.4,13.2-29.4,29.4v116.4
		c0,2.1-1.6,3.8-3.7,3.9c-2.1,0.1-3.9-1.4-4.1-3.5l-11.1-94.5c-1.9-16.1-16.5-27.7-32.6-25.8c-16.1,1.9-27.7,16.5-25.8,32.6
		l14.6,123.8c13.7-4.3,27.9-0.9,38,8.2c15.4,13.7,17.6,36.9,5.2,53.2c-0.6,0.9-1.3,1.7-2,2.5l-26.8,30c-2.7,3.1-7.6,3.5-10.9,0.6
		c-3.2-2.8-3.5-7.7-0.6-10.9l26.8-30c8.9-9.9,8-25.1-1.9-34c-9.9-8.8-25.1-8-34,1.9l-47,52.7c-8.6,9.6-8.1,24.2,1.1,33.2l0.2,0.2
		c59.3,63.1,61.9,66.1,76.2,80C212.9,386.7,229.1,398.3,252.5,398.3z"/>
</g>
</svg>
