<?xml version="1.0" encoding="iso-8859-1"?>
<!-- Generator: Adobe Illustrator 18.0.0, SVG Export Plug-In . SVG Version: 6.00 Build 0)  -->
<!DOCTYPE svg PUBLIC "-//W3C//DTD SVG 1.1//EN" "http://www.w3.org/Graphics/SVG/1.1/DTD/svg11.dtd">
<svg version="1.1" id="Capa_1" xmlns="http://www.w3.org/2000/svg" xmlns:xlink="http://www.w3.org/1999/xlink" x="0px" y="0px"
	 viewBox="0 0 287.084 287.084" style="enable-background:new 0 0 287.084 287.084;" xml:space="preserve">
<g>
	<path d="M218.188,239.917H118c-5.126,0-9.282,4.156-9.282,9.282v28.603c0,5.126,4.156,9.282,9.282,9.282h100.187
		c5.126,0,9.282-4.156,9.282-9.282v-28.603C227.47,244.073,223.314,239.917,218.188,239.917z"/>
	<path d="M233.687,49.327c-8.108-1.647-16.039,3.58-17.697,11.697l-7.142,34.981c-0.269,1.317-1.518,2.195-2.848,2.004
		c-1.33-0.192-2.28-1.387-2.166-2.726l5.421-63.68c0.772-9.072-5.957-17.054-15.029-17.826c-9.066-0.773-17.054,5.957-17.826,15.029
		l-4.616,54.232c-0.121,1.421-1.341,2.494-2.765,2.434c-1.425-0.061-2.549-1.233-2.549-2.66V16.487
		C166.469,7.382,159.087,0,149.981,0s-16.487,7.382-16.487,16.487v65.28c0,1.168-0.91,2.133-2.076,2.201
		c-1.166,0.069-2.183-0.784-2.319-1.943l-6.245-52.997c-1.065-9.042-9.261-15.513-18.304-14.444
		c-9.043,1.065-15.51,9.261-14.444,18.304L102.98,142.14c0.166,1.408-0.586,2.764-1.867,3.37c-1.281,0.606-2.807,0.327-3.79-0.695
		l-27.565-28.631c-6.314-6.559-16.751-6.758-23.312-0.442c-6.56,6.315-6.758,16.752-0.442,23.312l65.413,67.943
		c7.546,9.91,19.462,16.323,32.851,16.323h39.536c24.077,0,43.666-19.588,43.666-43.665c0-16.546,1.668-33.05,4.977-49.262
		l12.937-63.369C247.04,58.908,241.804,50.984,233.687,49.327z"/>
</g>
<g>
</g>
<g>
</g>
<g>
</g>
<g>
</g>
<g>
</g>
<g>
</g>
<g>
</g>
<g>
</g>
<g>
</g>
<g>
</g>
<g>
</g>
<g>
</g>
<g>
</g>
<g>
</g>
<g>
</g>
</svg>
