<?xml version="1.0" encoding="iso-8859-1"?>
<!-- Generator: Adobe Illustrator 18.0.0, SVG Export Plug-In . SVG Version: 6.00 Build 0)  -->
<!DOCTYPE svg PUBLIC "-//W3C//DTD SVG 1.1//EN" "http://www.w3.org/Graphics/SVG/1.1/DTD/svg11.dtd">
<svg version="1.1" id="Capa_1" xmlns="http://www.w3.org/2000/svg" xmlns:xlink="http://www.w3.org/1999/xlink" x="0px" y="0px"
	 viewBox="0 0 228.085 228.085" style="enable-background:new 0 0 228.085 228.085;" xml:space="preserve">
<g>
	<path d="M37.885,76.524H9.282C4.156,76.524,0,80.68,0,85.806v100.187c0,5.126,4.156,9.282,9.282,9.282l28.603,0
		c5.126,0,9.282-4.156,9.282-9.282V85.806C47.167,80.68,43.011,76.524,37.885,76.524z"/>
	<g>
		<path d="M165.486,95.161c0.006,0,0.011-0.001,0.017-0.002C165.499,95.105,165.494,95.128,165.486,95.161z"/>
		<path d="M165.486,95.161c-0.012,0.001-0.025,0.003-0.037,0.004C165.464,95.242,165.477,95.2,165.486,95.161z"/>
		<path d="M227.759,114.459c-1.423-7.277-9-13.159-16.415-13.159h-4.561c5.429-3.361,8.775-9.766,7.594-16.847
			c-1.259-7.543-8.886-13.653-16.533-13.653h-12.164c0.54,6.408-1.597,12.216-5.522,16.612c-3.007,3.371-6.883,5.959-11.178,7.13
			c0.05,0.37,0.034,0.254,0.084,0.624h9.909c1.564,0,3.095,0.655,4.057,1.888c2.598,3.328,0.072,7.854-3.811,7.854l-26.302,0
			c-0.886,0-1.761,0.24-2.507,0.718c-3.679,2.359-5.961,6.423-5.961,10.904c0,4.44,2.24,8.471,5.859,10.838l0.058,0.038
			c0.773,0.496,1.673,0.76,2.591,0.76h32.26c3.793,0,6.343,4.333,3.926,7.734c-0.929,1.307-2.498,2.008-4.102,2.008h-32.072
			c-0.934,0-1.848,0.27-2.631,0.778l-0.031,0.02c-3.619,2.368-5.859,6.398-5.859,10.839c0,4.482,2.282,8.546,5.961,10.903
			c0.745,0.478,1.621,0.718,2.506,0.718l22.303,0c3.169,0,5.908,3.245,4.485,6.818c-0.722,1.811-2.566,2.924-4.516,2.924h-22.174
			c-0.912,0-1.816,0.244-2.585,0.735c-3.69,2.357-5.98,6.427-5.98,10.917c0,6.163,4.417,11.508,10.404,12.717h30.082
			c7.648,0,15.275-6.111,16.534-13.655c1.181-7.081-2.166-13.486-7.596-16.846h5.077c7.648,0,15.275-6.111,16.534-13.655
			c1.181-7.081-2.166-13.486-7.596-16.846h3.71C221.791,134.274,229.824,125.023,227.759,114.459z"/>
	</g>
	<path d="M141.805,100.023c5.816-4.965,13.098-5.677,13.098-5.677l-22.836-20.189c-1.73-1.544-1.965-4.289-0.347-6.102
		c1.589-1.781,4.319-1.938,6.103-0.347l16.835,15.027c2.689,2.401,6.164,3.624,9.749,3.406c3.599-0.203,6.901-1.797,9.301-4.485
		c4.975-5.574,4.475-14.093-1.079-19.05l-29.529-26.361c-5.394-4.813-13.574-4.538-18.629,0.629l-0.128,0.125
		c-32.834,30.883-37.05,34.716-44.873,42.71c-9.256,10.244-15.706,19.257-15.706,32.365v39.537
		c0,24.077,19.589,43.665,43.666,43.665c9.605,0,19.98,0,31.179,0c-2.51-3.701-3.902-8.12-3.902-12.717
		c0-6.391,2.642-12.303,7.099-16.508c-4.457-4.204-7.099-10.117-7.099-16.507c0-6.391,2.642-12.303,7.099-16.508
		c-4.457-4.204-7.099-10.117-7.099-16.507C134.707,110.14,137.145,104.001,141.805,100.023z"/>
</g>
<g>
</g>
<g>
</g>
<g>
</g>
<g>
</g>
<g>
</g>
<g>
</g>
<g>
</g>
<g>
</g>
<g>
</g>
<g>
</g>
<g>
</g>
<g>
</g>
<g>
</g>
<g>
</g>
<g>
</g>
</svg>
