<?xml version="1.0" encoding="utf-8"?>
<!-- Generator: Adobe Illustrator 21.1.0, SVG Export Plug-In . SVG Version: 6.00 Build 0)  -->
<svg version="1.1" id="Capa_1" xmlns="http://www.w3.org/2000/svg" xmlns:xlink="http://www.w3.org/1999/xlink" x="0px" y="0px"
	 viewBox="0 0 512 512" style="enable-background:new 0 0 512 512;" xml:space="preserve">
<style type="text/css">
	.st0{fill:#FFFFFF;}
</style>
<g>
	<path class="st0" d="M389.1,427.9H210.4c-9.1,0-16.6,7.4-16.6,16.6v51c0,9.1,7.4,16.6,16.6,16.6h178.7c9.1,0,16.6-7.4,16.6-16.6
		v-51C405.7,435.3,398.3,427.9,389.1,427.9z"/>
	<path class="st0" d="M416.8,88c-14.5-2.9-28.6,6.4-31.6,20.9l-12.7,62.4c-0.5,2.3-2.7,3.9-5.1,3.6c-2.4-0.3-4.1-2.5-3.9-4.9
		l9.7-113.6c1.4-16.2-10.6-30.4-26.8-31.8c-16.2-1.4-30.4,10.6-31.8,26.8l-8.2,96.7c-0.2,2.5-2.4,4.4-4.9,4.3
		c-2.5-0.1-4.5-2.2-4.5-4.7V29.4c0-16.2-13.2-29.4-29.4-29.4c-16.2,0-29.4,13.2-29.4,29.4v116.4c0,2.1-1.6,3.8-3.7,3.9
		c-2.1,0.1-3.9-1.4-4.1-3.5l-11.1-94.5c-1.9-16.1-16.5-27.7-32.6-25.8c-16.1,1.9-27.7,16.5-25.8,32.6l23,194.8c0.3,2.5-1,4.9-3.3,6
		c-2.3,1.1-5,0.6-6.8-1.2l-49.2-51.1c-11.3-11.7-29.9-12.1-41.6-0.8C71.1,217.7,70.8,236.3,82,248l116.7,121.2
		c13.5,17.7,34.7,29.1,58.6,29.1h70.5c42.9,0,77.9-34.9,77.9-77.9c0-29.5,3-58.9,8.9-87.9l23.1-113C440.6,105.1,431.2,90.9,416.8,88
		z"/>
</g>
</svg>
